<?xml version="1.0" encoding="UTF-8" standalone="no"?>
<!-- Created with Inkscape (http://www.inkscape.org/) -->

<svg
   xmlns:dc="http://purl.org/dc/elements/1.1/"
   xmlns:cc="http://creativecommons.org/ns#"
   xmlns:rdf="http://www.w3.org/1999/02/22-rdf-syntax-ns#"
   xmlns:svg="http://www.w3.org/2000/svg"
   xmlns="http://www.w3.org/2000/svg"
   xmlns:sodipodi="http://sodipodi.sourceforge.net/DTD/sodipodi-0.dtd"
   xmlns:inkscape="http://www.inkscape.org/namespaces/inkscape"
   width="210mm"
   height="297mm"
   viewBox="0 0 210 297"
   version="1.1"
   id="svg8"
   inkscape:version="0.92.4 (unknown)"
   sodipodi:docname="icon.inkscape.svg">
  <defs
     id="defs2" />
  <sodipodi:namedview
     id="base"
     pagecolor="#ffffff"
     bordercolor="#666666"
     borderopacity="1.0"
     inkscape:pageopacity="0.0"
     inkscape:pageshadow="2"
     inkscape:zoom="0.49497475"
     inkscape:cx="360.46826"
     inkscape:cy="569.57763"
     inkscape:document-units="mm"
     inkscape:current-layer="layer1"
     showgrid="false"
     inkscape:window-width="1360"
     inkscape:window-height="744"
     inkscape:window-x="0"
     inkscape:window-y="24"
     inkscape:window-maximized="1" />
  <metadata
     id="metadata5">
    <rdf:RDF>
      <cc:Work
         rdf:about="">
        <dc:format>image/svg+xml</dc:format>
        <dc:type
           rdf:resource="http://purl.org/dc/dcmitype/StillImage" />
        <dc:title></dc:title>
      </cc:Work>
    </rdf:RDF>
  </metadata>
  <g
     inkscape:label="Capa 1"
     inkscape:groupmode="layer"
     id="layer1">
    <path
       id="path4518"
       d="M 124.96551,194.6443 93.21503,165.06837 a 6.1988095,6.1988095 0 0 1 -0.310734,-8.76091 l 29.576024,-31.75058 a 6.1988095,6.1988095 0 0 1 8.76099,-0.31065 l 31.75048,29.57593 a 6.1988095,6.1988095 0 0 1 0.31066,8.761 l -29.57603,31.75058 a 6.1988095,6.1988095 0 0 1 -8.76091,0.31056 m -1.08727,-30.66322 a 6.1988095,6.1988095 0 0 0 8.761,-0.31065 6.1988095,6.1988095 0 0 0 -0.31074,-8.7609 6.1988095,6.1988095 0 0 0 -8.76091,0.31056 6.1988095,6.1988095 0 0 0 0.31065,8.76099 z"
       inkscape:connector-curvature="0"
       style="stroke-width:3.09940434" />
    <path
       id="path4529"
       d="m 53.359633,80.762222 h 43.68566 a 6.240807,6.240807 0 0 1 6.240817,6.24079 v 43.685678 a 6.240807,6.240807 0 0 1 -6.240817,6.24081 h -43.68566 a 6.240807,6.240807 0 0 1 -6.24079,-6.24081 V 87.003012 a 6.240807,6.240807 0 0 1 6.24079,-6.24079 m 6.24081,6.24079 a 6.240807,6.240807 0 0 0 -6.24081,6.24081 6.240807,6.240807 0 0 0 6.24081,6.240819 6.240807,6.240807 0 0 0 6.24082,-6.240819 6.240807,6.240807 0 0 0 -6.24082,-6.24081 m 31.20404,31.204058 a 6.240807,6.240807 0 0 0 -6.2408,6.24079 6.240807,6.240807 0 0 0 6.2408,6.24083 6.240807,6.240807 0 0 0 6.24081,-6.24083 6.240807,6.240807 0 0 0 -6.24081,-6.24079 m 0,-31.204058 a 6.240807,6.240807 0 0 0 -6.2408,6.24081 6.240807,6.240807 0 0 0 6.2408,6.240819 6.240807,6.240807 0 0 0 6.24081,-6.240819 6.240807,6.240807 0 0 0 -6.24081,-6.24081 m -15.602,15.602028 a 6.240807,6.240807 0 0 0 -6.24082,6.24081 6.240807,6.240807 0 0 0 6.24082,6.24081 6.240807,6.240807 0 0 0 6.24079,-6.24081 6.240807,6.240807 0 0 0 -6.24079,-6.24081 m -15.60204,15.60203 a 6.240807,6.240807 0 0 0 -6.24081,6.24079 6.240807,6.240807 0 0 0 6.24081,6.24083 6.240807,6.240807 0 0 0 6.24082,-6.24083 6.240807,6.240807 0 0 0 -6.24082,-6.24079 z"
       inkscape:connector-curvature="0"
       style="stroke-width:3.12040329" />
  </g>
</svg>
